# xmcd
#
# Track frame offsets:
#	150
#	13781
#	26544
#	38709
#	53267
#	63712
#	77991
#	90108
#	100699
#	113367
#	125838
#	135084
#	148675
#	156899
#
# Disc length: 2244 seconds
# Revision: 1
# Processed by: cddbd v1.5.2PL0 Copyright (c) Steve Scherf et al.
# Submitted via: dBpowerAMP V12.0
#
DISCID=a408c20e
DTITLE=Jim Haynes - Galah Occasion
DYEAR=2012
DGENRE=Comedy
TTITLE0=Auntie Dorrie's Garage Sale
TTITLE1=Australia
TTITLE2=Crazy For You
TTITLE3=Let's Talk Dirty in Hawaiian
TTITLE4=Don't Fence Me in - Home Among The Gum Trees
TTITLE5=Flash Jack - Ard Tack
TTITLE6=Galah Occasion
TTITLE7=We Don't See Eye to Eye
TTITLE8=The Banjo and The Breaker and Henry Lawson
TTITLE9=Losin It
TTITLE10=Colonoscopy
TTITLE11=Casey's Luck
TTITLE12=El Dubbo ( El Paso)
TTITLE13=Just Say Bula
EXTD=
EXTT0=
EXTT1=
EXTT2=
EXTT3=
EXTT4=
EXTT5=
EXTT6=
EXTT7=
EXTT8=
EXTT9=
EXTT10=
EXTT11=
EXTT12=
EXTT13=
PLAYORDER=
